<svg t="1641793997618" class="icon" viewBox="0 0 1024 1024" version="1.1" xmlns="http://www.w3.org/2000/svg" width="200" height="200"><path d="M832 832v128H192v-128h640z m64-768a64 64 0 0 1 63.552 56.512L960 128v256h-128V192H192v448h640V523.584h128V704a64 64 0 0 1-56.512 63.552L896 768H128a64 64 0 0 1-63.552-56.512L64 704V128a64 64 0 0 1 56.512-63.552L128 64h768zM487.232 301.44l6.016 5.312L576 389.44l82.752-82.688a64 64 0 0 1 84.48-5.312l6.016 5.312a64 64 0 0 1 5.312 84.48l-5.312 6.016-128 128a64 64 0 0 1-84.48 5.312l-6.016-5.312L448 442.56 365.248 525.248a64 64 0 0 1-84.48 5.312l-6.016-5.312a64 64 0 0 1-5.312-84.48l5.312-6.016 128-128a64 64 0 0 1 84.48-5.312z"></path></svg>